<?xml version="1.0" encoding="utf-8"?>
<!-- Generator: Adobe Illustrator 25.4.1, SVG Export Plug-In . SVG Version: 6.00 Build 0)  -->
<svg version="1.1" xmlns="http://www.w3.org/2000/svg" xmlns:xlink="http://www.w3.org/1999/xlink" x="0px" y="0px"
	 viewBox="0 0 861.76 1233.11" style="enable-background:new 0 0 861.76 1233.11;" xml:space="preserve">
<style type="text/css">
	.st0{display:none;}
	.st1{display:inline;fill-rule:evenodd;clip-rule:evenodd;fill:#01052D;}
	
		.st2{clip-path:url(#SVGID_00000183214182126982878320000004325249158477784466_);fill:url(#SVGID_00000182516044662447176900000015388493597029888949_);}
	.st3{filter:url(#Adobe_OpacityMaskFilter);}
	.st4{fill:url(#SVGID_00000160161924968120363880000001143432677220225964_);}
	.st5{mask:url(#SVGID_00000016052837121941792000000003962715892625345673_);fill-rule:evenodd;clip-rule:evenodd;fill:#4A1877;}
	.st6{filter:url(#Adobe_OpacityMaskFilter_00000063618917698288986240000000603436501718421146_);}
	.st7{fill:url(#SVGID_00000010283171330507410620000018370216256825604533_);}
	.st8{mask:url(#SVGID_00000098929852818064838780000003550903345871752377_);fill-rule:evenodd;clip-rule:evenodd;fill:#300C50;}
	.st9{filter:url(#Adobe_OpacityMaskFilter_00000090985133197410634910000015027009517144413610_);}
	.st10{fill:url(#SVGID_00000132054196641904337180000013294176243407261062_);}
	.st11{mask:url(#SVGID_00000049921353404467841660000005865816330455709865_);fill-rule:evenodd;clip-rule:evenodd;fill:#F9D92E;}
	.st12{filter:url(#Adobe_OpacityMaskFilter_00000162340981456343416380000002371573661984987813_);}
	.st13{fill:url(#SVGID_00000101104124898846208350000001773465078906457493_);}
	.st14{mask:url(#SVGID_00000011710265052274225240000000853283053870757822_);fill-rule:evenodd;clip-rule:evenodd;fill:#4A1877;}
	.st15{filter:url(#Adobe_OpacityMaskFilter_00000029038688054065615300000017269961093715860646_);}
	.st16{fill:url(#SVGID_00000027603484965990891900000004680604094628884128_);}
	.st17{mask:url(#SVGID_00000125601245696368283300000002045860545277621670_);fill-rule:evenodd;clip-rule:evenodd;fill:#7A0425;}
	.st18{filter:url(#Adobe_OpacityMaskFilter_00000168832008897645811570000011511137527503987094_);}
	.st19{fill:url(#SVGID_00000000207106328259502450000012103355580808309926_);}
	.st20{mask:url(#SVGID_00000014625473264538671370000008544628813754430854_);fill-rule:evenodd;clip-rule:evenodd;fill:#7A0425;}
	
		.st21{clip-path:url(#SVGID_00000132767394428470068100000016191064347613869468_);fill:url(#SVGID_00000101103765928420797830000001764575762090145163_);}
	.st22{filter:url(#Adobe_OpacityMaskFilter_00000028311413553782658770000000413650523392117426_);}
	.st23{fill:url(#SVGID_00000160171972614286135410000003927113615900947588_);}
	.st24{mask:url(#SVGID_00000044168470051672615880000016028215384276758700_);fill-rule:evenodd;clip-rule:evenodd;fill:#F9D92E;}
	.st25{filter:url(#Adobe_OpacityMaskFilter_00000136369558572553318120000007810278665565269410_);}
	.st26{fill:url(#SVGID_00000121973418714970925010000010093565881733424773_);}
	.st27{mask:url(#SVGID_00000141425793895171041300000017235413258971215021_);fill-rule:evenodd;clip-rule:evenodd;fill:#01052D;}
	.st28{filter:url(#Adobe_OpacityMaskFilter_00000118378663905794116640000017724904343761383100_);}
	.st29{fill:url(#SVGID_00000095340017925089876030000005968011488719158688_);}
	.st30{mask:url(#SVGID_00000011724082287215136240000015293084227603826093_);fill-rule:evenodd;clip-rule:evenodd;fill:#01052D;}
	
		.st31{clip-path:url(#SVGID_00000034076776853875487000000000505570202841991071_);fill:url(#SVGID_00000059992320422197873210000013657434779780056212_);}
	.st32{filter:url(#Adobe_OpacityMaskFilter_00000056386837565144875580000002205551816739199423_);}
	.st33{fill:url(#SVGID_00000074419239285726966210000013653428293339877034_);}
	.st34{mask:url(#SVGID_00000127747537233766395480000003417050642135812543_);fill-rule:evenodd;clip-rule:evenodd;fill:#FEF163;}
	.st35{filter:url(#Adobe_OpacityMaskFilter_00000088122511145866404560000013097558014046002610_);}
	.st36{fill:url(#SVGID_00000111186364179381991040000004575000386946890930_);}
	.st37{mask:url(#SVGID_00000160170928201665189560000013412704757147160470_);fill-rule:evenodd;clip-rule:evenodd;fill:#E60040;}
	.st38{filter:url(#Adobe_OpacityMaskFilter_00000119824750497301111890000018414245986015734714_);}
	.st39{fill:url(#SVGID_00000078725369557704312630000003663690475328233133_);}
	.st40{mask:url(#SVGID_00000165940302363095605880000014031178582898169532_);fill-rule:evenodd;clip-rule:evenodd;fill:#E60040;}
	.st41{filter:url(#Adobe_OpacityMaskFilter_00000030447140364146790630000009750089026585467008_);}
	.st42{fill:url(#SVGID_00000088838887284130924910000014546788514995363215_);}
	.st43{mask:url(#SVGID_00000152963435008453043470000014400909240831474823_);fill-rule:evenodd;clip-rule:evenodd;fill:#E60040;}
	.st44{fill-rule:evenodd;clip-rule:evenodd;fill:#01052D;}
	.st45{filter:url(#Adobe_OpacityMaskFilter_00000147191997736921151470000001187092717928813214_);}
	.st46{fill:url(#SVGID_00000173860867350204717160000017767011477934741647_);}
	.st47{mask:url(#SVGID_00000076596027607095109330000010155690474071627438_);fill-rule:evenodd;clip-rule:evenodd;fill:#740107;}
	.st48{filter:url(#Adobe_OpacityMaskFilter_00000158747671685683294290000011481343729388364187_);}
	.st49{fill:url(#SVGID_00000057147676511361788440000011498811085206924460_);}
	.st50{mask:url(#SVGID_00000050646256276845389910000017366911618354943879_);fill-rule:evenodd;clip-rule:evenodd;fill:#740107;}
	.st51{filter:url(#Adobe_OpacityMaskFilter_00000065783995839217740580000000445829403229969297_);}
	.st52{fill:url(#SVGID_00000030477764690551755210000015802197800159553679_);}
	.st53{mask:url(#SVGID_00000166670842944060097050000003633847519541182344_);fill-rule:evenodd;clip-rule:evenodd;fill:#300C50;}
	.st54{filter:url(#Adobe_OpacityMaskFilter_00000004517923859488033060000013127227530296623786_);}
	.st55{fill:url(#SVGID_00000040541503651327065810000011658101157657804730_);}
	.st56{mask:url(#SVGID_00000172414850368110758770000000849577785999613838_);fill-rule:evenodd;clip-rule:evenodd;fill:#F9D92E;}
	.st57{fill-rule:evenodd;clip-rule:evenodd;fill:#F9D92E;}
	.st58{filter:url(#Adobe_OpacityMaskFilter_00000143604121690054008310000001488870235197359519_);}
	.st59{fill:url(#SVGID_00000176030125126789804190000011433352388340156039_);}
	.st60{mask:url(#SVGID_00000047763497996730945730000017596585670769840527_);fill-rule:evenodd;clip-rule:evenodd;fill:#F9D92E;}
</style>
<g id="Layer_1" class="st0">
	<rect x="-1138.24" y="0" class="st1" width="2000" height="2000"/>
</g>
<g id="Layer_2">
	<g>
		<g>
			<defs>
				<path id="SVGID_1_" d="M345.12,798.16c9.4,15.19,16.39,41.11-1.63,79.67c-31.69,67.81-260.9,135.61-196.78,343.44
					c112.27-213.17,450.02-66.74,484.95-245.42c0,0-32.43,25.79-56.01,11.79c-18.51-10.99-3.44-42.84,21.71-63.18
					c31.56-24.79,125.52-56.17,95.19-158.86c-3.84,35.25-47.14,58.96-68.67,20.63c-9.68-17.24-6.14-45.61,7.08-66.33
					c22.68-35.53,75.3-40.83,89.59,4.06c29.77-92.42-56.73-128.83-89.07-157.84c-38.68-34.71,3.56-63.16,41.53-41.89
					c-51.63-104.46-227.87-141.31-302.6-107.97c-152.29-18.95-19.51,70.61-18.73,118.29c0.78,47.68,0.94,11.8,2.43,18.92
					c-0.23,0.8-0.47,1.59-0.7,2.4C316.56,682.64,345.12,798.16,345.12,798.16"/>
			</defs>
			<clipPath id="SVGID_00000152265615674419373290000002238631305607791283_">
				<use xlink:href="#SVGID_1_"  style="overflow:visible;"/>
			</clipPath>
			
				<linearGradient id="SVGID_00000113317916001971867700000016811004253742867879_" gradientUnits="userSpaceOnUse" x1="513.6187" y1="569.4807" x2="221.2849" y2="1269.3973">
				<stop  offset="0" style="stop-color:#E60040"/>
				<stop  offset="0.45" style="stop-color:#9027E2"/>
				<stop  offset="1" style="stop-color:#15B0F8"/>
			</linearGradient>
			
				<rect x="82.6" y="382.92" style="clip-path:url(#SVGID_00000152265615674419373290000002238631305607791283_);fill:url(#SVGID_00000113317916001971867700000016811004253742867879_);" width="667.73" height="838.35"/>
		</g>
		<defs>
			<filter id="Adobe_OpacityMaskFilter" filterUnits="userSpaceOnUse" x="135.45" y="512.85" width="348.08" height="708.42">
				<feColorMatrix  type="matrix" values="1 0 0 0 0  0 1 0 0 0  0 0 1 0 0  0 0 0 1 0"/>
			</filter>
		</defs>
		
			<mask maskUnits="userSpaceOnUse" x="135.45" y="512.85" width="348.08" height="708.42" id="SVGID_00000069389407065030332270000014051511458561306789_">
			<g class="st3">
				
					<linearGradient id="SVGID_00000053506416426372154000000014801216349397348273_" gradientUnits="userSpaceOnUse" x1="127.3083" y1="195.0846" x2="127.3083" y2="1376.0356" gradientTransform="matrix(1 0 0 1 182.1855 -109.0654)">
					<stop  offset="0" style="stop-color:#FFFFFF"/>
					<stop  offset="1" style="stop-color:#000000"/>
				</linearGradient>
				
					<rect x="135.45" y="512.85" style="fill:url(#SVGID_00000053506416426372154000000014801216349397348273_);" width="348.08" height="708.42"/>
			</g>
		</mask>
		
			<path style="mask:url(#SVGID_00000069389407065030332270000014051511458561306789_);fill-rule:evenodd;clip-rule:evenodd;fill:#4A1877;" d="
			M345.12,798.16c9.4,15.19,16.39,41.11-1.63,79.67c-31.69,67.81-260.9,135.61-196.78,343.44
			c-15.41-185.33,127.08-236.29,224.12-297.91c108.47-68.89,161.36-199.32,53.92-327.01c0,0-25.95-30.92-79.82-83.5
			c4.03,7.77,6.65,15.13,6.76,21.7c0.78,47.68,0.94,11.8,2.43,18.92c-0.23,0.8-0.47,1.59-0.7,2.4
			C316.56,682.64,345.12,798.16,345.12,798.16"/>
		<defs>
			
				<filter id="Adobe_OpacityMaskFilter_00000085243158541622769720000006292373511264375178_" filterUnits="userSpaceOnUse" x="146.47" y="723.64" width="574.19" height="497.63">
				<feColorMatrix  type="matrix" values="1 0 0 0 0  0 1 0 0 0  0 0 1 0 0  0 0 0 1 0"/>
			</filter>
		</defs>
		
			<mask maskUnits="userSpaceOnUse" x="146.47" y="723.64" width="574.19" height="497.63" id="SVGID_00000093169254650844827060000000858602893455215280_">
			<g style="filter:url(#Adobe_OpacityMaskFilter_00000085243158541622769720000006292373511264375178_);">
				
					<linearGradient id="SVGID_00000177473425891609871530000006066961545621018552_" gradientUnits="userSpaceOnUse" x1="-899.7107" y1="2001.7178" x2="533.0385" y2="853.7173" gradientTransform="matrix(1 0 0 1 184.8291 -109.0654)">
					<stop  offset="0" style="stop-color:#FFFFFF"/>
					<stop  offset="1" style="stop-color:#000000"/>
				</linearGradient>
				
					<rect x="146.47" y="723.64" style="fill:url(#SVGID_00000177473425891609871530000006066961545621018552_);" width="574.19" height="497.63"/>
			</g>
		</mask>
		
			<path style="mask:url(#SVGID_00000093169254650844827060000000858602893455215280_);fill-rule:evenodd;clip-rule:evenodd;fill:#300C50;" d="
			M720.47,723.71l0.09,0.25l0.1-0.32C720.6,723.66,720.53,723.68,720.47,723.71 M146.72,1221.27
			c112.27-213.17,450.02-66.74,484.95-245.42c0,0-32.43,25.79-56.01,11.79c-18.51-10.99-3.44-42.84,21.71-63.18
			c31.56-24.79,125.52-56.17,95.19-158.86c-0.07,0.59-0.14,1.18-0.23,1.76c-15.82,133.79-232.27,143.49-395.1,221.61
			C133.68,1067.43,146.72,1221.27,146.72,1221.27z"/>
		<defs>
			
				<filter id="Adobe_OpacityMaskFilter_00000164473718326233185900000017139093047656626608_" filterUnits="userSpaceOnUse" x="381.1" y="404.35" width="345.59" height="319.61">
				<feColorMatrix  type="matrix" values="1 0 0 0 0  0 1 0 0 0  0 0 1 0 0  0 0 0 1 0"/>
			</filter>
		</defs>
		
			<mask maskUnits="userSpaceOnUse" x="381.1" y="404.35" width="345.59" height="319.61" id="SVGID_00000126313127931392870150000008941695981604807311_">
			<g style="filter:url(#Adobe_OpacityMaskFilter_00000164473718326233185900000017139093047656626608_);">
				
					<linearGradient id="SVGID_00000155119267397381065180000017889612545872562104_" gradientUnits="userSpaceOnUse" x1="838.8014" y1="259.7459" x2="41.3421" y2="1067.4957" gradientTransform="matrix(1 0 0 1 241.1416 -228.4189)">
					<stop  offset="0" style="stop-color:#FFFFFF"/>
					<stop  offset="1" style="stop-color:#000000"/>
				</linearGradient>
				
					<rect x="381.1" y="404.35" style="fill:url(#SVGID_00000155119267397381065180000017889612545872562104_);" width="345.59" height="319.61"/>
			</g>
		</mask>
		
			<path style="mask:url(#SVGID_00000126313127931392870150000008941695981604807311_);fill-rule:evenodd;clip-rule:evenodd;fill:#F9D92E;" d="
			M720.56,723.96c29.77-92.42-56.73-128.83-89.07-157.84c-38.68-34.71,3.56-63.16,41.53-41.89
			c-49.31-99.76-212.26-137.85-291.92-112.04c2.04,5.73,4.39,11.64,7.15,17.78c191.65,0.97,175.85,89.85,147.77,79.96
			c0,0-15.11,35.01,38.69,63.01C628.52,600.95,736.69,617.76,720.56,723.96"/>
		<defs>
			
				<filter id="Adobe_OpacityMaskFilter_00000001653394156312771160000008663999859675199875_" filterUnits="userSpaceOnUse" x="528.33" y="765.6" width="170.17" height="226.31">
				<feColorMatrix  type="matrix" values="1 0 0 0 0  0 1 0 0 0  0 0 1 0 0  0 0 0 1 0"/>
			</filter>
		</defs>
		
			<mask maskUnits="userSpaceOnUse" x="528.33" y="765.6" width="170.17" height="226.31" id="SVGID_00000025420316766328740130000004115199981329312922_">
			<g style="filter:url(#Adobe_OpacityMaskFilter_00000001653394156312771160000008663999859675199875_);">
				
					<linearGradient id="SVGID_00000094589444918451970530000002368286236226803080_" gradientUnits="userSpaceOnUse" x1="463.2912" y1="738.0599" x2="270.2075" y2="1203.8533" gradientTransform="matrix(1 0 0 1 276.4756 -164.1113)">
					<stop  offset="0" style="stop-color:#FFFFFF"/>
					<stop  offset="1" style="stop-color:#000000"/>
				</linearGradient>
				
					<rect x="528.33" y="765.6" style="fill:url(#SVGID_00000094589444918451970530000002368286236226803080_);" width="170.17" height="226.31"/>
			</g>
		</mask>
		
			<path style="mask:url(#SVGID_00000025420316766328740130000004115199981329312922_);fill-rule:evenodd;clip-rule:evenodd;fill:#4A1877;" d="
			M592.08,991.8c-5.61,0.08-11.23-1.07-16.43-4.16c-18.51-10.99-3.44-42.84,21.71-63.18c31.56-24.79,125.52-56.17,95.19-158.86
			c0,0,5.24,54.25-30.51,78.93c-30.46,21.04-74.84,29.5-106,51.62C503.24,933.65,531.8,994.9,592.08,991.8 M597.73,991.33
			l-0.06,0.01L597.73,991.33L597.73,991.33z"/>
		<defs>
			
				<filter id="Adobe_OpacityMaskFilter_00000107550431542649109980000004434314695003274639_" filterUnits="userSpaceOnUse" x="584.67" y="658.64" width="135.89" height="147.17">
				<feColorMatrix  type="matrix" values="1 0 0 0 0  0 1 0 0 0  0 0 1 0 0  0 0 0 1 0"/>
			</filter>
		</defs>
		
			<mask maskUnits="userSpaceOnUse" x="584.67" y="658.64" width="135.89" height="147.17" id="SVGID_00000075123050611080691900000005038994028204804541_">
			<g style="filter:url(#Adobe_OpacityMaskFilter_00000107550431542649109980000004434314695003274639_);">
				
					<linearGradient id="SVGID_00000103948873148453943200000016350867498026095286_" gradientUnits="userSpaceOnUse" x1="410.4444" y1="805.9544" x2="343.3613" y2="995.3703" gradientTransform="matrix(1 0 0 1 289.9961 -208.7734)">
					<stop  offset="0" style="stop-color:#FFFFFF"/>
					<stop  offset="1" style="stop-color:#000000"/>
				</linearGradient>
				
					<rect x="584.67" y="658.64" style="fill:url(#SVGID_00000103948873148453943200000016350867498026095286_);" width="135.89" height="147.17"/>
			</g>
		</mask>
		
			<path style="mask:url(#SVGID_00000075123050611080691900000005038994028204804541_);fill-rule:evenodd;clip-rule:evenodd;fill:#7A0425;" d="
			M639.95,802.72c-5.94-3.03-11.49-8.36-16.06-16.49c-9.68-17.24-6.14-45.61,7.08-66.33c22.68-35.53,75.3-40.83,89.59,4.06
			c-0.54-91.32-112.56-78.59-135.89-12.82c0,0,22.85-19.9,21.74-1.48C605.36,727.07,579.74,782.9,639.95,802.72 M651.4,805.82h-0.01
			H651.4z"/>
		<defs>
			
				<filter id="Adobe_OpacityMaskFilter_00000114051640352457267570000000981647223160377511_" filterUnits="userSpaceOnUse" x="575.12" y="487.49" width="97.9" height="96.01">
				<feColorMatrix  type="matrix" values="1 0 0 0 0  0 1 0 0 0  0 0 1 0 0  0 0 0 1 0"/>
			</filter>
		</defs>
		
			<mask maskUnits="userSpaceOnUse" x="575.12" y="487.49" width="97.9" height="96.01" id="SVGID_00000114040635032091597660000016779956383334656430_">
			<g style="filter:url(#Adobe_OpacityMaskFilter_00000114051640352457267570000000981647223160377511_);">
				
					<linearGradient id="SVGID_00000086686591623843596380000002115482339147081867_" gradientUnits="userSpaceOnUse" x1="336.3644" y1="604.7577" x2="336.3644" y2="848.7163" gradientTransform="matrix(1 0 0 1 287.7051 -262.1294)">
					<stop  offset="0" style="stop-color:#FFFFFF"/>
					<stop  offset="1" style="stop-color:#000000"/>
				</linearGradient>
				
					<rect x="575.12" y="487.49" style="fill:url(#SVGID_00000086686591623843596380000002115482339147081867_);" width="97.9" height="96.01"/>
			</g>
		</mask>
		
			<path style="mask:url(#SVGID_00000114040635032091597660000016779956383334656430_);fill-rule:evenodd;clip-rule:evenodd;fill:#7A0425;" d="
			M654.2,583.5c-8.72-6.26-16.67-11.95-22.72-17.37c-38.68-34.71,3.56-63.16,41.53-41.89c-43.95-60.54-131.26-39.01-84.53,12.09
			C603.48,552.71,628.65,569.99,654.2,583.5z"/>
		<g>
			<defs>
				<path id="SVGID_00000165939326158639480040000012471822245730140847_" d="M72.71,853.98c0,0-5.6,12.61,3.8,24.96
					c37.96,49.87,138.58,72.24,179.28,46.24c-54.53-1.55-50.61-87.23,2.95-102.45c22.2-6.31,52.42-10.55,77.66-20.51
					c65.22-25.75,71.72-128.46,158.56-97.78c0,0-39.38-51.03-121.95-43.39h0c-35.26,9.74-64.07-1.3-71.7,8.76
					c-53.76,70.91-20.3-5.12-113.5,88.07C155,790.69,135.1,849.28,72.71,853.98"/>
			</defs>
			<clipPath id="SVGID_00000119079396042592049220000012827278827714559115_">
				<use xlink:href="#SVGID_00000165939326158639480040000012471822245730140847_"  style="overflow:visible;"/>
			</clipPath>
			
				<linearGradient id="SVGID_00000111906792729827715120000015159480578902871430_" gradientUnits="userSpaceOnUse" x1="190.8815" y1="892.4505" x2="1053.7998" y2="29.5743">
				<stop  offset="0" style="stop-color:#E60040"/>
				<stop  offset="1" style="stop-color:#FFFF00"/>
			</linearGradient>
			
				<rect x="67.12" y="653.42" style="clip-path:url(#SVGID_00000119079396042592049220000012827278827714559115_);fill:url(#SVGID_00000111906792729827715120000015159480578902871430_);" width="427.83" height="297.76"/>
		</g>
		<defs>
			
				<filter id="Adobe_OpacityMaskFilter_00000044175004039842468540000009412988212106894779_" filterUnits="userSpaceOnUse" x="211.67" y="660.28" width="283.28" height="264.9">
				<feColorMatrix  type="matrix" values="1 0 0 0 0  0 1 0 0 0  0 0 1 0 0  0 0 0 1 0"/>
			</filter>
		</defs>
		
			<mask maskUnits="userSpaceOnUse" x="211.67" y="660.28" width="283.28" height="264.9" id="SVGID_00000021077471671550130660000000499376047639060124_">
			<g style="filter:url(#Adobe_OpacityMaskFilter_00000044175004039842468540000009412988212106894779_);">
				
					<linearGradient id="SVGID_00000080179298281158878550000005668261928567141256_" gradientUnits="userSpaceOnUse" x1="653.8631" y1="589.7023" x2="-122.9297" y2="1183.7449" gradientTransform="matrix(1 0 0 1 200.4771 -180.125)">
					<stop  offset="0" style="stop-color:#FFFFFF"/>
					<stop  offset="1" style="stop-color:#000000"/>
				</linearGradient>
				
					<rect x="211.67" y="660.28" style="fill:url(#SVGID_00000080179298281158878550000005668261928567141256_);" width="283.28" height="264.9"/>
			</g>
		</mask>
		
			<path style="mask:url(#SVGID_00000021077471671550130660000000499376047639060124_);fill-rule:evenodd;clip-rule:evenodd;fill:#F9D92E;" d="
			M255.79,925.19c-54.53-1.55-50.61-87.23,2.95-102.45c22.2-6.31,52.42-10.55,77.66-20.51c65.22-25.75,71.72-128.46,158.56-97.78
			c0,0-39.38-51.03-121.95-43.39h0c-0.34,0.09-0.68,0.18-1.01,0.27c0.01,0,0.02,0,0.03,0c34.59-3.11,77.45,11.3,104.8,33.02
			c-14.57-2.14-29.07-0.5-42.9,7.15c-11.63,6.44-21.13,16.08-29.57,26.21c-8.77,10.53-16.62,21.79-25.17,32.49
			c-6.83,8.54-14.16,16.84-22.63,23.8c-6.71,5.52-14.01,10.08-22.11,13.27c-7.97,3.15-16.22,5.63-24.51,7.81
			c-9.05,2.38-18.19,4.39-27.33,6.41c-8.46,1.88-16.99,3.75-25.33,6.12c-21.15,6.01-36.45,22.57-42.82,43.34
			C206.93,885.48,212.73,924.53,255.79,925.19"/>
		<defs>
			
				<filter id="Adobe_OpacityMaskFilter_00000145761684454254123080000009863556462512052622_" filterUnits="userSpaceOnUse" x="345.12" y="405.97" width="215.26" height="459.16">
				<feColorMatrix  type="matrix" values="1 0 0 0 0  0 1 0 0 0  0 0 1 0 0  0 0 0 1 0"/>
			</filter>
		</defs>
		
			<mask maskUnits="userSpaceOnUse" x="345.12" y="405.97" width="215.26" height="459.16" id="SVGID_00000109734412942836477980000010001105798497866924_">
			<g style="filter:url(#Adobe_OpacityMaskFilter_00000145761684454254123080000009863556462512052622_);">
				
					<linearGradient id="SVGID_00000013902618702636203900000004707262545566921638_" gradientUnits="userSpaceOnUse" x1="-135.6344" y1="2072.8135" x2="317.2814" y2="491.2353" gradientTransform="matrix(1 0 0 1 232.5059 -194.5371)">
					<stop  offset="0" style="stop-color:#FFFFFF"/>
					<stop  offset="1" style="stop-color:#000000"/>
				</linearGradient>
				
					<rect x="345.12" y="405.97" style="fill:url(#SVGID_00000013902618702636203900000004707262545566921638_);" width="215.25" height="459.16"/>
			</g>
		</mask>
		
			<path style="mask:url(#SVGID_00000109734412942836477980000010001105798497866924_);fill-rule:evenodd;clip-rule:evenodd;fill:#01052D;" d="
			M348.71,865.14c33.59-13.45,50.36-38.91,60.4-76.15c10.04-37.23,36.48-47.54,46.8-35.38c10.32,12.16,7.37,30.59-10.32,44.22
			c88.82-11.02,130.4-101,109.44-189.78c-4.09,37.85-42.26,53.02-34.5-4.29c1.36-10.06,3.78-22.81,6.49-39.56
			c2.75-16.99,15.3-98.43-35.05-151.5c-18.98-3.94-37.64-6.24-55.07-6.73c-2.81,6.14-4.24,12.12-3.7,17.69
			c2.95,30.22,31.69,8.84,33.17-12.53c0,0,16.95,48.27-8.11,77.02c-25.06,28.74-64.12,41.64-67.44,67.07s79.23,26.9,104.29-40.17
			c0,0,12.53,66.33-28.74,105.39c-20.47,19.37-58.7,31.04-93.38,40.62c10.34-0.95,15.42-0.81,25.55-0.55l13.22,1.25l9.26,1.56
			l5.86,1.3c0.95,0.23,1.9,0.47,2.84,0.72l8.15,2.4l12.35,4.69l6.67,3.11c0.71,0.35,1.41,0.71,2.1,1.07
			c7.72,4.02,15.06,8.76,21.84,14.21l2.46,2.03c3.55,3.01,8.75,7.9,11.65,11.61c-9.7-3.43-21.23-5.63-30.79-5.64
			c-55.66,0.96-69.79,72.73-119.04,99.34C345.12,799.44,363.97,821.96,348.71,865.14"/>
		<defs>
			
				<filter id="Adobe_OpacityMaskFilter_00000082327161177589512650000006096806539213985961_" filterUnits="userSpaceOnUse" x="345.12" y="405.97" width="172.83" height="418.21">
				<feColorMatrix  type="matrix" values="1 0 0 0 0  0 1 0 0 0  0 0 1 0 0  0 0 0 1 0"/>
			</filter>
		</defs>
		
			<mask maskUnits="userSpaceOnUse" x="345.12" y="405.97" width="172.83" height="418.21" id="SVGID_00000170976032353680002910000001732375094425137024_">
			<g style="filter:url(#Adobe_OpacityMaskFilter_00000082327161177589512650000006096806539213985961_);">
				
					<linearGradient id="SVGID_00000147942182750493880370000013844486806242800822_" gradientUnits="userSpaceOnUse" x1="-160.6619" y1="2075.4819" x2="292.2564" y2="493.8951" gradientTransform="matrix(1 0 0 1 232.5059 -204.3672)">
					<stop  offset="0" style="stop-color:#FFFFFF"/>
					<stop  offset="1" style="stop-color:#000000"/>
				</linearGradient>
				
					<rect x="345.12" y="405.97" style="fill:url(#SVGID_00000147942182750493880370000013844486806242800822_);" width="172.83" height="418.21"/>
			</g>
		</mask>
		
			<path style="mask:url(#SVGID_00000170976032353680002910000001732375094425137024_);fill-rule:evenodd;clip-rule:evenodd;fill:#01052D;" d="
			M475.23,409.63c-13.17-2.08-26.05-3.32-38.32-3.66c-2.81,6.14-4.24,12.12-3.7,17.69c2.95,30.22,31.69,8.84,33.17-12.53
			c0,0,16.95,48.27-8.11,77.02c-25.06,28.74-64.12,41.64-67.44,67.07s79.23,26.9,104.29-40.17c0,0,12.53,66.33-28.74,105.39
			c-20.47,19.37-58.7,31.04-93.38,40.62c10.34-0.95,15.42-0.81,25.55-0.55l13.22,1.25l9.26,1.56l5.86,1.3
			c0.95,0.23,1.9,0.47,2.84,0.72l8.15,2.4l12.35,4.69l6.67,3.11c0.71,0.35,1.41,0.71,2.1,1.07c7.72,4.02,15.06,8.76,21.84,14.21
			l2.46,2.03c3.55,3.01,8.75,7.9,11.65,11.61c-9.7-3.43-21.23-5.63-30.79-5.64c-55.66,0.96-69.79,72.73-119.04,99.34
			c0,0.79,7.04,9.5,9.03,26.02c16.06-10.06,28.89-27.08,47.35-55.24c29.48-44.96,58.59-35.01,87.34-46.8
			c28.74-11.79,29.11-45.69,29.11-45.69c-18.05,9.58-35.38,1.1-43.48-14.37c-8.11-15.48,20.27-44.22,35.74-87.7
			c15.48-43.48-7.37-85.31-7.37-85.31c-4.42,14-28.37,16.58-17.69-16.58C495.84,439.31,475.23,409.63,475.23,409.63"/>
		<g>
			<defs>
				<path id="SVGID_00000139261728894555945120000007618352538453435053_" d="M72.71,853.98c0,0-12.71,2.58-23.4-6.26
					c-10.69-8.85-7.37-27.09-15.11-45.33c-7.74-18.25-13.08-25.24-1.47-38.33c11.61-13.08,11.79-14.19,14.74-29.85
					c2.95-15.66,17.41-40.45,13.36-58.13c-4.05-17.69-14.92-31.32-10.87-47.91c1.98-8.1,7.27-16.56,12.38-24.7
					c27.69-44.03-24.65-72.01,8.07-114.04c-6.21,37.56,32.12,43.38,30.95,19.16c-0.58-12-14.59-45.82,3.1-78.62
					c17.69-32.8,21-58.23,19.53-66.33c0,0,5.36,5.88,5.9,15.29c1.67,29.2,22.62,34.48,27.69-0.33
					c8.93-61.18,11.51-75.19,53.62-117.25c41.76-41.72,84.2-61.09,103.16-131.21c5.71,114.44-52.86,146.99-54.17,187.57
					c-0.74,22.85,18.79,8.84,18.06-5.9c0,0,12.53,16.58-1.1,40.9c-8.5,15.16-24.34,35.03-30.49,53.32
					c-8.02,23.86,11.11,37.85,28.42,22.29c24.99-22.46,28.94-116.4,98.27-143.81c-25.46,26.48-22.9,88.46,19.75,53.65
					c41.22-33.65,47.47-80.11,132.35-126.48c23.78-12.99,52.57-27.01,62.54-80.27c0,0,8.85,42.38-17.32,77.02
					c-26.16,34.64-72.97,69.28-67.81,88.44c5.16,19.16,28.37-5.53,28.37-5.53s-7,26.17-26.53,43.12
					c-19.53,16.95-74.44,58.96-71.49,89.18c2.95,30.22,31.69,8.84,33.17-12.53c0,0,16.95,48.27-8.11,77.02
					c-25.06,28.74-64.12,41.64-67.44,67.07s79.23,26.9,104.29-40.17c0,0,12.53,66.33-28.74,105.39
					c-41.27,39.06-154.77,46.8-165.83,69.28c-11.06,22.48,21.37,19.9,37.96,9.58c0,0-19.9,27.64-45.69,32.06
					c-25.8,4.42-62.64,15.84-95.44,48.64C164.58,812.8,135.1,849.28,72.71,853.98"/>
			</defs>
			<clipPath id="SVGID_00000109010535930798323090000013573449176923876517_">
				<use xlink:href="#SVGID_00000139261728894555945120000007618352538453435053_"  style="overflow:visible;"/>
			</clipPath>
			
				<linearGradient id="SVGID_00000137828416597315006350000004403280217613956505_" gradientUnits="userSpaceOnUse" x1="-166.7614" y1="1250.022" x2="639.6166" y2="-32.5239">
				<stop  offset="0" style="stop-color:#E60040"/>
				<stop  offset="1" style="stop-color:#FFFF00"/>
			</linearGradient>
			
				<rect x="21.13" y="130.15" style="clip-path:url(#SVGID_00000109010535930798323090000013573449176923876517_);fill:url(#SVGID_00000137828416597315006350000004403280217613956505_);" width="575.71" height="726.42"/>
		</g>
		<defs>
			
				<filter id="Adobe_OpacityMaskFilter_00000143580242547590474940000004903425125423737755_" filterUnits="userSpaceOnUse" x="143.56" y="284.53" width="229.78" height="236.39">
				<feColorMatrix  type="matrix" values="1 0 0 0 0  0 1 0 0 0  0 0 1 0 0  0 0 0 1 0"/>
			</filter>
		</defs>
		
			<mask maskUnits="userSpaceOnUse" x="143.56" y="284.53" width="229.78" height="236.39" id="SVGID_00000158733782495974019420000001894571072309966978_">
			<g style="filter:url(#Adobe_OpacityMaskFilter_00000143580242547590474940000004903425125423737755_);">
				
					<linearGradient id="SVGID_00000007405172752125368340000008476154185703284624_" gradientUnits="userSpaceOnUse" x1="253.2245" y1="395.1833" x2="-53.3594" y2="883.0588" gradientTransform="matrix(1 0 0 1 184.1318 -277.1489)">
					<stop  offset="0" style="stop-color:#FFFFFF"/>
					<stop  offset="1" style="stop-color:#000000"/>
				</linearGradient>
				
					<rect x="143.56" y="284.53" style="fill:url(#SVGID_00000007405172752125368340000008476154185703284624_);" width="229.78" height="236.39"/>
			</g>
		</mask>
		
			<path style="mask:url(#SVGID_00000158733782495974019420000001894571072309966978_);fill-rule:evenodd;clip-rule:evenodd;fill:#FEF163;" d="
			M307.84,357.7c12.77-29.53,31.07-59.56,65.51-73.17c-0.72,0.75-1.42,1.54-2.1,2.35l-0.01,0.01
			c-32.87,19.96-43.78,62.22-41.21,107.17c2.58,44.96-19.99,54.91-32.34,60.99c-12.35,6.08-15.11,20.18-8.75,26.35
			c6.36,6.17,20.45,0.46,20.45,0.46c-37.94,55.54-116.11-6.73-165.83,39.06c13.45-28.37,36.11-37.96,61.57-42.01
			c41.79-7.23,67.36-26.51,80-55.41C294.2,402.77,299.02,379.91,307.84,357.7"/>
		<defs>
			
				<filter id="Adobe_OpacityMaskFilter_00000098920162851370192300000005585948276609006990_" filterUnits="userSpaceOnUse" x="36.03" y="515.05" width="460.88" height="339.28">
				<feColorMatrix  type="matrix" values="1 0 0 0 0  0 1 0 0 0  0 0 1 0 0  0 0 0 1 0"/>
			</filter>
		</defs>
		
			<mask maskUnits="userSpaceOnUse" x="36.03" y="515.05" width="460.88" height="339.28" id="SVGID_00000156545754707832751140000005386317679274798493_">
			<g style="filter:url(#Adobe_OpacityMaskFilter_00000098920162851370192300000005585948276609006990_);">
				
					<linearGradient id="SVGID_00000005987698256355452820000017127910304406338491_" gradientUnits="userSpaceOnUse" x1="-867.7811" y1="1550.8666" x2="458.8454" y2="641.4075" gradientTransform="matrix(1 0 0 1 158.3247 -197.1289)">
					<stop  offset="0" style="stop-color:#FFFFFF"/>
					<stop  offset="1" style="stop-color:#000000"/>
				</linearGradient>
				
					<rect x="36.03" y="515.05" style="fill:url(#SVGID_00000005987698256355452820000017127910304406338491_);" width="460.89" height="339.29"/>
			</g>
		</mask>
		
			<path style="mask:url(#SVGID_00000156545754707832751140000005386317679274798493_);fill-rule:evenodd;clip-rule:evenodd;fill:#E60040;" d="
			M36.04,807.3l0-0.01l0,0L36.04,807.3z M72.71,853.98c0,0-12.71,2.58-23.4-6.26c-8.04-6.65-8.15-18.62-11.01-31.91
			c3.97,12.64,10.47,22.45,24.41,22.75c16.95,0.37,46.8-4.79,61.17-32.06c14.37-27.27,27.64-83.65,73.33-86.23
			c0,0-14,11.05-7.37,20.27c6.63,9.21,40.54,2.58,60.07-19.53c19.53-22.11,36.11-60.8,64.49-71.86
			c28.38-11.06,79.23-2.21,92.5-14.37c13.27-12.16-6.27-26.53-16.58-16.95c0,0,4.06-15.48,22.85-19.16
			c18.79-3.68,84.34-13.19,81.97-83.61c0,0,12.53,66.33-28.74,105.39c-41.27,39.06-154.77,46.8-165.83,69.28
			c-11.06,22.48,21.37,19.9,37.96,9.58c0,0-19.9,27.64-45.69,32.06c-25.8,4.42-62.64,15.84-95.44,48.64
			C164.58,812.8,135.1,849.28,72.71,853.98z"/>
		<defs>
			
				<filter id="Adobe_OpacityMaskFilter_00000019668855044066693060000016165095700384464007_" filterUnits="userSpaceOnUse" x="358.41" y="131.44" width="231.02" height="439.95">
				<feColorMatrix  type="matrix" values="1 0 0 0 0  0 1 0 0 0  0 0 1 0 0  0 0 0 1 0"/>
			</filter>
		</defs>
		
			<mask maskUnits="userSpaceOnUse" x="358.41" y="131.44" width="231.02" height="439.95" id="SVGID_00000022534191450813693410000017496674740345729426_">
			<g style="filter:url(#Adobe_OpacityMaskFilter_00000019668855044066693060000016165095700384464007_);">
				
					<linearGradient id="SVGID_00000100346874416084180290000005635700350317551039_" gradientUnits="userSpaceOnUse" x1="-303.7092" y1="1667.3147" x2="374.3327" y2="352.5237" gradientTransform="matrix(1 0 0 1 235.6948 -265.0361)">
					<stop  offset="0" style="stop-color:#FFFFFF"/>
					<stop  offset="1" style="stop-color:#000000"/>
				</linearGradient>
				
					<rect x="358.41" y="131.44" style="fill:url(#SVGID_00000100346874416084180290000005635700350317551039_);" width="231.02" height="439.95"/>
			</g>
		</mask>
		
			<path style="mask:url(#SVGID_00000022534191450813693410000017496674740345729426_);fill-rule:evenodd;clip-rule:evenodd;fill:#E60040;" d="
			M422.28,571.22l0.22-0.02l0,0.01L422.28,571.22z M587.99,131.44c0,0,8.85,42.38-17.32,77.02c-26.16,34.64-72.97,69.28-67.81,88.44
			c5.16,19.16,28.37-5.53,28.37-5.53s-7,26.17-26.53,43.12c-19.53,16.95-74.44,58.96-71.49,89.18c2.95,30.22,31.69,8.84,33.17-12.53
			c0,0,16.95,48.27-8.11,77.02c-25.06,28.74-64.12,41.64-67.44,67.07c-1.27,9.73,10.04,15.94,25.88,16.16
			c-21.31,0.25-56.94-3.62-58.28-33.51c-1.48-32.8,57.3-55.28,49.2-74.44c-8.11-19.16-31.69-18.06-33.9,0c0,0-16.22-25.8-3.32-47.17
			c12.9-21.37,70.75-44.59,80.7-85.5c9.95-40.9,19.16-61.17,36.11-71.12c0,0-5.16,7.18-2.58,13.08c2.58,5.9,11.98-0.55,18.05-10.5
			c6.08-9.95,35.19-37.96,42.38-43.48C552.27,213.21,586.49,189.33,587.99,131.44z"/>
		<defs>
			
				<filter id="Adobe_OpacityMaskFilter_00000008840438056450686780000011865483741374916242_" filterUnits="userSpaceOnUse" x="204.32" y="130.15" width="110.43" height="348.77">
				<feColorMatrix  type="matrix" values="1 0 0 0 0  0 1 0 0 0  0 0 1 0 0  0 0 0 1 0"/>
			</filter>
		</defs>
		
			<mask maskUnits="userSpaceOnUse" x="204.32" y="130.15" width="110.43" height="348.77" id="SVGID_00000111896312603989128890000013309962009666172319_">
			<g style="filter:url(#Adobe_OpacityMaskFilter_00000008840438056450686780000011865483741374916242_);">
				
					<linearGradient id="SVGID_00000149366403697668164300000016234367804099198609_" gradientUnits="userSpaceOnUse" x1="-421.3704" y1="1373.7405" x2="186.5046" y2="387.949" gradientTransform="matrix(1 0 0 1 198.7144 -287.231)">
					<stop  offset="0" style="stop-color:#FFFFFF"/>
					<stop  offset="1" style="stop-color:#000000"/>
				</linearGradient>
				
					<rect x="204.32" y="130.15" style="fill:url(#SVGID_00000149366403697668164300000016234367804099198609_);" width="110.43" height="348.77"/>
			</g>
		</mask>
		
			<path style="mask:url(#SVGID_00000111896312603989128890000013309962009666172319_);fill-rule:evenodd;clip-rule:evenodd;fill:#E60040;" d="
			M314.37,130.15c5.71,114.44-52.86,146.99-54.17,187.57c-0.74,22.85,18.79,8.84,18.06-5.9c0,0,12.53,16.58-1.1,40.9
			c-8.5,15.16-24.34,35.03-30.49,53.32c-8.02,23.86,11.11,37.85,28.42,22.29c12.58-11.31,19.83-40.72,32.77-70.64
			c-8.81,22.2-13.64,45.07-22.7,65.8c-12.63,28.9-38.21,48.17-80,55.41c-3.59-35.06,4.35-67.89,31.02-105.55
			c9.49-13.41,0.72-26.29-7.8-29.7c-14.74-5.89-16.95,23.59-16.95,23.59s-14.74-20.27-0.74-47.54c14-27.27,49.75-47.17,67.44-81.07
			C295.79,204.74,310.83,177.9,314.37,130.15"/>
		<path class="st44" d="M120.74,739.56c0,0,19.71-35.47,47.46-39.29c27.76-3.82,68.69-5.9,84.31-32.96
			c15.61-27.06,20.13-69.73,62.8-84.65c-33.65-1.9-58.07,17.26-86.72,31.25c-17.01,8.3-32.73,14.44-36.79,10.38
			c-7.63-7.63,7.28-18.73,7.28-18.73c-46.13,9.44-29.46,59.65-48.57,78.75C139.41,695.42,121.65,713.69,120.74,739.56"/>
		<path class="st44" d="M75.59,809.11c-1.47-6.82,1.66-28.74,21.56-35.38C117.05,767.1,108.76,797.32,75.59,809.11"/>
		<defs>
			
				<filter id="Adobe_OpacityMaskFilter_00000060026433377536852780000008000949949990618768_" filterUnits="userSpaceOnUse" x="71.06" y="659.86" width="388.88" height="236.38">
				<feColorMatrix  type="matrix" values="1 0 0 0 0  0 1 0 0 0  0 0 1 0 0  0 0 0 1 0"/>
			</filter>
		</defs>
		
			<mask maskUnits="userSpaceOnUse" x="71.06" y="659.86" width="388.88" height="236.38" id="SVGID_00000178207081704928422570000014363536403471228067_">
			<g style="filter:url(#Adobe_OpacityMaskFilter_00000060026433377536852780000008000949949990618768_);">
				
					<linearGradient id="SVGID_00000096044236711001520340000016858635419730002052_" gradientUnits="userSpaceOnUse" x1="-597.5571" y1="1562.3151" x2="348.027" y2="751.3561" gradientTransform="matrix(1 0 0 1 166.7305 -187.0703)">
					<stop  offset="0" style="stop-color:#FFFFFF"/>
					<stop  offset="1" style="stop-color:#000000"/>
				</linearGradient>
				
					<rect x="71.06" y="659.86" style="fill:url(#SVGID_00000096044236711001520340000016858635419730002052_);" width="388.88" height="236.38"/>
			</g>
		</mask>
		
			<path style="mask:url(#SVGID_00000178207081704928422570000014363536403471228067_);fill-rule:evenodd;clip-rule:evenodd;fill:#740107;" d="
			M72.71,853.98c0,0-5.6,12.61,3.8,24.96c4.72,6.21,10.42,11.99,16.85,17.31c-11.49-14.95,16.15-7.94,49.68-3.15
			c33.53,4.79,46.8-2.21,55.28-12.53c0,0-28.21-1.04-21.19-22.85c6.36-19.75,20.83-40.16,40.41-56.58
			c43.42-36.41,105-18.38,139.85-52.33c32.28-31.46,41.19-82.87,102.54-71.7c-29.63-17.06-71.99-19.13-86.94-16.04h0
			c-35.26,9.74-66.87,17.33-72.44,28.66c-11.06,22.48,21.37,19.9,37.96,9.58c0,0-19.9,27.64-45.69,32.06
			c-25.8,4.42-62.64,15.84-95.44,48.64C164.58,812.8,135.1,849.28,72.71,853.98"/>
		<defs>
			
				<filter id="Adobe_OpacityMaskFilter_00000178181492725139496750000004365701554609691059_" filterUnits="userSpaceOnUse" x="71.06" y="660.6" width="335.33" height="203.55">
				<feColorMatrix  type="matrix" values="1 0 0 0 0  0 1 0 0 0  0 0 1 0 0  0 0 0 1 0"/>
			</filter>
		</defs>
		
			<mask maskUnits="userSpaceOnUse" x="71.06" y="660.6" width="335.33" height="203.55" id="SVGID_00000080196801022111754800000014198214230619644809_">
			<g style="filter:url(#Adobe_OpacityMaskFilter_00000178181492725139496750000004365701554609691059_);">
				
					<linearGradient id="SVGID_00000104669443802529914600000017323494676815594671_" gradientUnits="userSpaceOnUse" x1="-603.0406" y1="1500.0818" x2="534.1262" y2="585.4559" gradientTransform="matrix(1 0 0 1 166.7305 -194.7725)">
					<stop  offset="0" style="stop-color:#FFFFFF"/>
					<stop  offset="1" style="stop-color:#000000"/>
				</linearGradient>
				
					<rect x="71.06" y="660.6" style="fill:url(#SVGID_00000104669443802529914600000017323494676815594671_);" width="335.33" height="203.55"/>
			</g>
		</mask>
		
			<path style="mask:url(#SVGID_00000080196801022111754800000014198214230619644809_);fill-rule:evenodd;clip-rule:evenodd;fill:#740107;" d="
			M72.71,853.98c0,0-1.87,4.22-1.63,10.17c14.35-0.68,53.76,0.81,76.41-15.12c28.56-20.09,58.69-79.96,112.21-94.52
			c56.19-15.29,82.91-22.66,103-65.78c0,0-13.27,6.08-14.55-1.29c-1.29-7.37,30.26-24.42,58.24-26.51
			c-7.39-0.3-25.15-0.65-33.39,0.12h0c-35.26,9.74-66.87,17.33-72.44,28.66c-11.06,22.48,21.37,19.9,37.96,9.58
			c0,0-19.9,27.64-45.69,32.06c-25.8,4.42-62.64,15.84-95.44,48.64C164.58,812.8,135.1,849.28,72.71,853.98"/>
		<defs>
			
				<filter id="Adobe_OpacityMaskFilter_00000003093955376012157670000000560522755853028792_" filterUnits="userSpaceOnUse" x="146.72" y="975.85" width="484.95" height="245.42">
				<feColorMatrix  type="matrix" values="1 0 0 0 0  0 1 0 0 0  0 0 1 0 0  0 0 0 1 0"/>
			</filter>
		</defs>
		
			<mask maskUnits="userSpaceOnUse" x="146.72" y="975.85" width="484.95" height="245.42" id="SVGID_00000123403864212241964000000006453622246739087277_">
			<g style="filter:url(#Adobe_OpacityMaskFilter_00000003093955376012157670000000560522755853028792_);">
				
					<linearGradient id="SVGID_00000004532286409935631790000010745110297580716700_" gradientUnits="userSpaceOnUse" x1="-645.949" y1="1615.4813" x2="589.2976" y2="1022.9423" gradientTransform="matrix(1 0 0 1 184.8882 -109.0654)">
					<stop  offset="0" style="stop-color:#FFFFFF"/>
					<stop  offset="1" style="stop-color:#000000"/>
				</linearGradient>
				
					<rect x="146.72" y="975.85" style="fill:url(#SVGID_00000004532286409935631790000010745110297580716700_);" width="484.95" height="245.42"/>
			</g>
		</mask>
		
			<path style="mask:url(#SVGID_00000123403864212241964000000006453622246739087277_);fill-rule:evenodd;clip-rule:evenodd;fill:#300C50;" d="
			M146.72,1221.27c112.27-213.17,450.02-66.74,484.95-245.42c-8.13,27.29-48.61,54.88-103.52,63.35
			c-54.91,8.48-142.61-50.48-182.04-47.53c-39.43,2.95-52.33,40.16-52.33,40.16c26.91-17.61,59.03,6.13,9.98,36.15
			C248.88,1101.57,173.29,1101.87,146.72,1221.27"/>
		<defs>
			
				<filter id="Adobe_OpacityMaskFilter_00000010278569936196433640000016021251934589009342_" filterUnits="userSpaceOnUse" x="47.98" y="131.44" width="541.45" height="722.89">
				<feColorMatrix  type="matrix" values="1 0 0 0 0  0 1 0 0 0  0 0 1 0 0  0 0 0 1 0"/>
			</filter>
		</defs>
		
			<mask maskUnits="userSpaceOnUse" x="47.98" y="131.44" width="541.45" height="722.89" id="SVGID_00000011712809607167599880000017824885502065888153_">
			<g style="filter:url(#Adobe_OpacityMaskFilter_00000010278569936196433640000016021251934589009342_);">
				
					<linearGradient id="SVGID_00000075861596354564260260000014996620825479463356_" gradientUnits="userSpaceOnUse" x1="848.1624" y1="-290.2436" x2="-522.6693" y2="1655.4196" gradientTransform="matrix(1 0 0 1 161.1914 -197.1289)">
					<stop  offset="0" style="stop-color:#FFFFFF"/>
					<stop  offset="1" style="stop-color:#000000"/>
				</linearGradient>
				
					<rect x="47.98" y="131.44" style="fill:url(#SVGID_00000075861596354564260260000014996620825479463356_);" width="541.45" height="722.9"/>
			</g>
		</mask>
		
			<path style="mask:url(#SVGID_00000011712809607167599880000017824885502065888153_);fill-rule:evenodd;clip-rule:evenodd;fill:#F9D92E;" d="
			M72.71,853.98c0,0-12.71,2.58-23.4-6.26c-0.47-0.39-0.92-0.8-1.33-1.23c20.9,17.27,82.14-14.4,94.89-23.53
			c18.78-13.46,34.27-30.67,50.53-46.93c27.21-27.21,60.73-43.74,98.47-50.21c9.83-1.68,19.08-7.28,26.77-13.73
			c-8.69,1.19-18.49,0.47-23.38-6.19c-4.18-5.69-2.62-12.8,0.26-18.66c5.35-10.87,26.35-17.3,37.11-20.64
			c20.23-6.27,40.9-11.2,61.19-17.37c21.96-6.69,51.81-16.87,68.7-32.86c17.69-16.74,25.89-39.84,28.15-63.63
			c0.55-5.77,0.76-11.61,0.63-17.43c-12.03,18.86-30.3,32.72-52.64,38.78c-10.25,2.78-21.93,3.95-32.42,1.89
			c-8.11-1.59-17.24-5.61-20.22-14c-0.85-2.42-1.09-4.95-0.76-7.49c0.26-2.01,0.72-4,1.35-5.93c4.49-13.68,17.98-23.93,29.14-32.16
			c13.42-9.9,27.24-19.28,38.29-31.95c10.72-12.29,13.22-29.33,12.12-45.09c-0.22-3.03-0.56-6.07-1.02-9.09
			c-2.26,3.3-4.99,6.31-8.05,8.71c-4.74,3.73-10.95,6.44-17.04,4.79c-8.66-2.34-11.65-11.6-12.42-19.57
			c-1.02-10.47,3.66-20.98,9.12-29.64c6.37-10.11,14.78-19.47,23.21-27.9c7.33-7.33,15.06-14.28,22.92-21.04
			c6.01-5.17,12.16-10.19,18.15-15.39c7.07-6.14,12.79-13.95,17.24-22.22c-3.71,1.62-7.76,2.44-11.65,1.22
			c-5.07-1.59-7.86-5.98-9.18-10.88c-3.12-11.59,7.12-24.83,14.05-33.12c25.66-30.7,82.15-60.7,76.5-133.8
			c0,0,8.85,42.38-17.32,77.02c-26.16,34.64-72.97,69.28-67.81,88.44c5.16,19.16,28.37-5.53,28.37-5.53s-7,26.17-26.53,43.12
			c-19.53,16.95-74.44,58.96-71.49,89.18c2.95,30.22,31.69,8.84,33.17-12.53c0,0,16.95,48.27-8.11,77.02
			c-25.06,28.74-64.12,41.64-67.44,67.07s79.23,26.9,104.29-40.17c0,0,12.53,66.33-28.74,105.39
			c-41.27,39.06-154.77,46.8-165.83,69.28c-11.06,22.48,21.37,19.9,37.96,9.58c0,0-19.9,27.64-45.69,32.06
			c-25.8,4.42-62.64,15.84-95.44,48.64C164.58,812.8,135.1,849.28,72.71,853.98"/>
		<path class="st57" d="M196.07,669.31c17.04,0,31.29-11.96,34.81-27.95c-1.71-0.25-3.45-0.38-5.23-0.38
			c-17.05,0-31.3,11.96-34.81,27.95C192.54,669.18,194.29,669.31,196.07,669.31"/>
		<defs>
			
				<filter id="Adobe_OpacityMaskFilter_00000108294852650676671010000000778703720141744811_" filterUnits="userSpaceOnUse" x="26" y="490.09" width="61.86" height="360.56">
				<feColorMatrix  type="matrix" values="1 0 0 0 0  0 1 0 0 0  0 0 1 0 0  0 0 0 1 0"/>
			</filter>
		</defs>
		
			<mask maskUnits="userSpaceOnUse" x="26" y="490.09" width="61.86" height="360.56" id="SVGID_00000173858035922577999950000010176433304630521239_">
			<g style="filter:url(#Adobe_OpacityMaskFilter_00000108294852650676671010000000778703720141744811_);">
				
					<linearGradient id="SVGID_00000165948428291218783900000000486491942542688933_" gradientUnits="userSpaceOnUse" x1="-98.9861" y1="392.9883" x2="-98.9861" y2="1087.2383" gradientTransform="matrix(1 0 0 1 155.9155 -198.0156)">
					<stop  offset="0" style="stop-color:#FFFFFF"/>
					<stop  offset="1" style="stop-color:#000000"/>
				</linearGradient>
				
					<rect x="26" y="490.09" style="fill:url(#SVGID_00000165948428291218783900000000486491942542688933_);" width="61.87" height="360.56"/>
			</g>
		</mask>
		
			<path style="mask:url(#SVGID_00000173858035922577999950000010176433304630521239_);fill-rule:evenodd;clip-rule:evenodd;fill:#F9D92E;" d="
			M53.59,850.64c-1.44-0.8-2.88-1.76-4.28-2.92c-10.69-8.85-7.37-27.09-15.11-45.33c-7.74-18.25-13.08-25.24-1.47-38.33
			c11.61-13.08,11.79-14.19,14.74-29.85c2.95-15.66,17.41-40.45,13.36-58.13c-4.05-17.69-14.92-31.32-10.87-47.91
			c1.98-8.1,7.27-16.56,12.38-24.7c27.55-43.81-24.1-71.72,7.58-113.39c-6.89,9.6-7.02,31.73,3.43,62.35
			c10.69,31.32,12.53,49.01,11.05,62.83c-1.47,13.82-9.76,18.98-9.76,18.98c0.55-6.08-6.45-12.53-10.5-4.42
			c-4.05,8.11,2.21,18.61,7.37,27.82c5.16,9.21-0.37,16.95,6.63,19.9c7,2.95,9.21-3.87,9.21-3.87
			c3.87,18.79-15.66,48.09-19.71,70.38c-4.05,22.29-22.29,28.01-24.51,38.33c-2.21,10.32,6.26,32.43,5.53,45.69
			c-0.74,13.27,5.6,21.85,5.6,21.85C54.04,850.17,53.82,850.4,53.59,850.64"/>
	</g>
</g>
</svg>
